<?xml version="1.0" encoding="UTF-8" standalone="no"?>
<!DOCTYPE svg PUBLIC "-//W3C//DTD SVG 1.1//EN" "http://www.w3.org/Graphics/SVG/1.1/DTD/svg11.dtd">
<svg width="100%" height="100%" viewBox="0 0 149 127" version="1.1" xmlns="http://www.w3.org/2000/svg" xmlns:xlink="http://www.w3.org/1999/xlink" xml:space="preserve" xmlns:serif="http://www.serif.com/" style="fill-rule:evenodd;clip-rule:evenodd;stroke-linejoin:round;stroke-miterlimit:2;">
    <g transform="matrix(1.5625,0,0,1.5625,0,0)">
        <g transform="matrix(0.121668,0,0,0.0993169,-26.3921,1.34068)">
            <path d="M699.497,93.252C707.485,93.312 714.6,99.453 717.335,108.648C757.196,242.17 805.753,338.224 891.144,456.19C898.326,466.098 900.121,480.232 895.736,492.345C880.197,535.288 843.767,635.93 828.185,678.978C823.759,691.205 813.867,699.087 802.95,699.087C733.505,699.087 482.962,699.087 413.741,699.087C402.889,699.087 393.044,691.298 388.58,679.181C372.821,636.406 335.887,536.149 320.166,493.477C315.742,481.465 317.416,467.399 324.456,457.435C404.94,343.343 456.579,244.045 497.724,113.624C501.844,100.497 512.169,91.867 523.649,91.952C565.442,92.252 663.693,92.985 699.497,93.252ZM608.41,138.439C559.332,302.646 497.934,421.767 395.913,563.431L820.906,563.431C713.175,417.737 656.032,303.99 608.41,138.439Z"/>
        </g>
    </g>
</svg>
