<?xml version="1.0" encoding="UTF-8" standalone="no"?>
<!DOCTYPE svg PUBLIC "-//W3C//DTD SVG 1.1//EN" "http://www.w3.org/Graphics/SVG/1.1/DTD/svg11.dtd">
<svg width="100%" height="100%" viewBox="0 0 544 144" version="1.1" xmlns="http://www.w3.org/2000/svg" xmlns:xlink="http://www.w3.org/1999/xlink" xml:space="preserve" xmlns:serif="http://www.serif.com/" style="fill-rule:evenodd;clip-rule:evenodd;stroke-linejoin:round;stroke-miterlimit:2;">
    <g transform="matrix(1.25,0,0,1.25,0,0)">
        <g transform="matrix(0.940549,0,0,0.940549,-586.725,-482.02)">
            <g transform="matrix(0.688197,0,0,0.688197,550.59,310.048)">
                <path d="M223.242,355.141L241.14,373.039L148.708,465.717L130.564,447.574L223.242,355.141ZM229.371,454.684L229.371,366.91L141.597,366.91L166.851,341.657L230.795,341.657C243.956,341.657 254.625,352.326 254.625,365.486L254.625,429.43L229.371,454.684Z" style="fill:rgb(58,61,0);fill-rule:nonzero;"/>
            </g>
            <g transform="matrix(0.49841,0,0,0.49841,686.869,361.951)">
                <path d="M176.597,489.131C166.225,489.131 156.982,486.904 148.867,482.45C140.751,477.996 134.416,471.846 129.86,463.999C125.303,456.152 123.025,447.1 123.025,436.843L123.025,368.136L155.266,368.136L155.266,436.05C155.266,440.959 156.101,445.155 157.772,448.639C159.442,452.122 161.893,454.797 165.125,456.664C168.357,458.531 172.201,459.465 176.658,459.465C183.359,459.465 188.569,457.42 192.288,453.331C196.007,449.243 197.866,443.482 197.866,436.05L197.866,368.136L230.107,368.136L230.107,436.847C230.107,447.226 227.839,456.339 223.303,464.184C218.767,472.03 212.48,478.149 204.442,482.542C196.403,486.935 187.121,489.131 176.597,489.131Z" style="fill:rgb(58,61,0);fill-rule:nonzero;"/>
            </g>
            <g transform="matrix(0.49841,0,0,0.49841,679.056,361.951)">
                <path d="M321.313,489.009C312.773,489.009 305.07,487.272 298.205,483.799C291.34,480.325 285.854,475.544 281.747,469.456C277.641,463.367 275.424,456.441 275.097,448.677L275.097,406.629C275.424,398.865 277.671,391.888 281.839,385.697C286.007,379.506 291.522,374.623 298.383,371.047C305.244,367.472 312.888,365.684 321.313,365.684C332.264,365.684 342.071,368.401 350.734,373.836C359.397,379.271 366.221,386.637 371.207,395.933C376.192,405.229 378.685,415.762 378.685,427.53C378.685,439.176 376.192,449.637 371.207,458.913C366.221,468.189 359.397,475.524 350.734,480.918C342.071,486.312 332.264,489.009 321.313,489.009ZM255.483,536.205L255.483,368.136L287.724,368.136L287.724,399.247L282.268,428.082L287.417,456.768L287.417,536.205L255.483,536.205ZM315.708,459.342C321.626,459.342 326.838,457.983 331.346,455.266C335.854,452.549 339.395,448.778 341.969,443.953C344.544,439.129 345.831,433.586 345.831,427.323C345.831,421.046 344.544,415.506 341.969,410.705C339.395,405.904 335.859,402.144 331.361,399.427C326.864,396.709 321.674,395.351 315.793,395.351C309.911,395.351 304.692,396.703 300.136,399.408C295.58,402.112 292.045,405.871 289.532,410.684C287.019,415.497 285.762,421.048 285.762,427.339C285.762,433.596 287.009,439.135 289.501,443.957C291.994,448.779 295.518,452.549 300.074,455.266C304.631,457.983 309.842,459.342 315.708,459.342Z" style="fill:rgb(58,61,0);fill-rule:nonzero;"/>
            </g>
            <g transform="matrix(0.49841,0,0,0.49841,673.663,361.951)">
                <path d="M440.408,489.315C433.625,489.315 427.026,488.426 420.61,486.649C414.195,484.871 408.28,482.358 402.865,479.11C397.451,475.861 392.782,471.969 388.86,467.433L408.045,448.064C412.09,452.6 416.789,456.042 422.143,458.392C427.496,460.742 433.441,461.917 439.979,461.917C445.21,461.917 449.184,461.15 451.901,459.618C454.618,458.086 455.977,455.869 455.977,452.968C455.977,449.698 454.537,447.185 451.656,445.428C448.775,443.671 445.067,442.149 440.531,440.862C435.995,439.575 431.214,438.185 426.188,436.694C421.162,435.202 416.371,433.169 411.814,430.595C407.258,428.021 403.55,424.476 400.689,419.96C397.829,415.445 396.399,409.612 396.399,402.461C396.399,394.901 398.258,388.353 401.977,382.816C405.695,377.279 410.966,372.968 417.791,369.883C424.615,366.798 432.706,365.255 442.063,365.255C451.829,365.255 460.687,366.961 468.634,370.373C476.582,373.785 483.131,378.903 488.279,385.727L469.033,405.096C465.437,400.765 461.371,397.608 456.835,395.626C452.299,393.645 447.478,392.654 442.37,392.654C437.548,392.654 433.88,393.379 431.367,394.83C428.854,396.28 427.598,398.334 427.598,400.99C427.598,403.891 429.028,406.159 431.888,407.793C434.749,409.428 438.447,410.858 442.983,412.084C447.518,413.31 452.289,414.71 457.295,416.283C462.301,417.856 467.071,420.022 471.607,422.78C476.143,425.538 479.841,429.206 482.702,433.782C485.562,438.359 486.992,444.305 486.992,451.619C486.992,463.183 482.804,472.357 474.427,479.14C466.05,485.924 454.71,489.315 440.408,489.315Z" style="fill:rgb(58,61,0);fill-rule:nonzero;"/>
            </g>
            <g transform="matrix(0.49841,0,0,0.49841,668.279,361.951)">
                <path d="M508.445,486.557L508.445,368.136L540.686,368.136L540.686,486.557L508.445,486.557ZM524.566,349.135C519.376,349.135 515.065,347.367 511.633,343.833C508.2,340.298 506.484,335.936 506.484,330.746C506.484,325.557 508.2,321.194 511.633,317.66C515.065,314.125 519.376,312.358 524.566,312.358C529.919,312.358 534.271,314.125 537.621,317.66C540.972,321.194 542.648,325.557 542.648,330.746C542.648,335.936 540.972,340.298 537.621,343.833C534.271,347.367 529.919,349.135 524.566,349.135Z" style="fill:rgb(58,61,0);fill-rule:nonzero;"/>
            </g>
            <g transform="matrix(0.49841,0,0,0.49841,661.45,361.951)">
                <path d="M619.021,489.009C608.069,489.009 598.265,486.314 589.609,480.924C580.952,475.533 574.128,468.199 569.136,458.919C564.145,449.639 561.649,439.163 561.649,427.492C561.649,415.693 564.142,405.159 569.127,395.891C574.112,386.623 580.925,379.271 589.565,373.836C598.205,368.401 608.023,365.684 619.021,365.684C627.561,365.684 635.233,367.421 642.037,370.894C648.84,374.367 654.336,379.148 658.525,385.237C662.713,391.326 664.951,398.252 665.237,406.016L665.237,448.064C664.951,455.828 662.744,462.805 658.617,468.996C654.49,475.187 648.994,480.07 642.129,483.645C635.264,487.221 627.561,489.009 619.021,489.009ZM624.537,459.342C630.585,459.342 635.839,457.983 640.299,455.266C644.76,452.549 648.254,448.789 650.781,443.988C653.308,439.186 654.571,433.639 654.571,427.346C654.571,421.005 653.312,415.451 650.794,410.686C648.276,405.92 644.782,402.173 640.313,399.444C635.843,396.715 630.636,395.351 624.69,395.351C618.745,395.351 613.529,396.721 609.043,399.461C604.557,402.202 601.012,405.974 598.408,410.78C595.805,415.585 594.503,421.107 594.503,427.346C594.503,433.598 595.785,439.133 598.349,443.95C600.913,448.766 604.473,452.536 609.028,455.258C613.583,457.981 618.752,459.342 624.537,459.342ZM684.851,486.557L652.916,486.557L652.916,454.745L658.065,425.875L652.61,397.251L652.61,309.293L684.851,309.293L684.851,486.557Z" style="fill:rgb(58,61,0);fill-rule:nonzero;"/>
            </g>
            <g transform="matrix(0.49841,0,0,0.49841,656.027,361.951)">
                <path d="M769.744,489.131C757.403,489.131 746.38,486.475 736.675,481.163C726.97,475.851 719.319,468.506 713.721,459.128C708.122,449.75 705.323,439.156 705.323,427.346C705.323,415.578 708.071,405.045 713.567,395.749C719.063,386.453 726.541,379.097 736.001,373.683C745.461,368.269 756.014,365.562 767.66,365.562C779.02,365.562 789.062,368.105 797.786,373.193C806.51,378.28 813.365,385.278 818.35,394.186C823.336,403.094 825.828,413.249 825.828,424.649C825.828,426.733 825.706,428.879 825.461,431.085C825.215,433.292 824.807,435.764 824.235,438.502L724.57,438.686L724.57,414.781L809.279,414.597L796.162,424.466C795.917,417.437 794.68,411.563 792.453,406.843C790.226,402.124 787.039,398.518 782.891,396.025C778.744,393.532 773.626,392.286 767.537,392.286C761.163,392.286 755.626,393.696 750.926,396.515C746.227,399.335 742.601,403.309 740.047,408.437C737.493,413.565 736.216,419.705 736.216,426.856C736.216,434.048 737.574,440.29 740.292,445.582C743.009,450.873 746.881,454.939 751.907,457.779C756.933,460.619 762.818,462.039 769.56,462.039C775.526,462.039 780.981,461.007 785.926,458.944C790.87,456.88 795.14,453.805 798.736,449.719L817.615,468.72C811.812,475.463 804.784,480.55 796.53,483.983C788.275,487.415 779.347,489.131 769.744,489.131Z" style="fill:rgb(58,61,0);fill-rule:nonzero;"/>
            </g>
        </g>
    </g>
</svg>
