<?xml version="1.0" encoding="UTF-8" standalone="no"?>
<!DOCTYPE svg PUBLIC "-//W3C//DTD SVG 1.1//EN" "http://www.w3.org/Graphics/SVG/1.1/DTD/svg11.dtd">
<svg width="100%" height="100%" viewBox="0 0 648 127" version="1.1" xmlns="http://www.w3.org/2000/svg" xmlns:xlink="http://www.w3.org/1999/xlink" xml:space="preserve" xmlns:serif="http://www.serif.com/" style="fill-rule:evenodd;clip-rule:evenodd;stroke-linejoin:round;stroke-miterlimit:2;">
    <g transform="matrix(1.5625,0,0,1.5625,0,0)">
        <g transform="matrix(0.894135,0,0,0.894135,-64.3999,-90.9549)">
            <path d="M222.049,113.355L248.292,113.355C252.299,113.355 256.289,113.906 260.262,115.008C264.235,116.11 267.807,117.862 270.979,120.266C274.151,122.67 276.739,125.759 278.742,129.532C280.745,133.304 281.747,137.862 281.747,143.204C281.747,149.414 280.662,155.057 278.492,160.132C276.321,165.207 273.3,169.53 269.427,173.103C265.554,176.675 260.98,179.43 255.704,181.366C250.429,183.303 244.686,184.271 238.476,184.271L209.529,184.271L222.049,113.355ZM228.46,169.848L239.177,169.848C243.317,169.848 246.973,169.163 250.145,167.794C253.317,166.425 255.955,164.589 258.058,162.285C260.162,159.981 261.747,157.344 262.816,154.372C263.884,151.401 264.419,148.346 264.419,145.207C264.419,142.803 264.035,140.516 263.267,138.346C262.499,136.176 261.313,134.289 259.711,132.687C258.108,131.084 256.088,129.815 253.651,128.881C251.214,127.946 248.326,127.478 244.987,127.478L235.872,127.478L228.46,169.848Z" style="fill-rule:nonzero;"/>
            <path d="M301.78,163.637C301.713,163.905 301.68,164.205 301.68,164.539C301.68,165.941 301.997,167.193 302.631,168.295C303.265,169.397 304.1,170.332 305.135,171.1C306.17,171.868 307.339,172.452 308.641,172.853C309.943,173.253 311.295,173.454 312.698,173.454C315.235,173.454 317.472,172.986 319.409,172.051C321.345,171.116 323.081,169.848 324.617,168.245L334.734,176.158C331.528,179.564 327.956,182.018 324.016,183.52C320.076,185.022 315.836,185.774 311.295,185.774C307.823,185.774 304.601,185.29 301.629,184.321C298.658,183.353 296.07,181.917 293.867,180.014C291.663,178.111 289.927,175.757 288.658,172.953C287.389,170.148 286.755,166.943 286.755,163.337C286.755,159.063 287.506,155.073 289.009,151.367C290.511,147.661 292.581,144.439 295.219,141.702C297.857,138.964 301.012,136.81 304.684,135.241C308.357,133.672 312.397,132.887 316.804,132.887C320.076,132.887 323.065,133.355 325.769,134.289C328.473,135.224 330.794,136.576 332.73,138.346C334.667,140.116 336.169,142.303 337.238,144.907C338.306,147.511 338.84,150.516 338.84,153.922C338.84,155.124 338.724,156.643 338.49,158.479C338.256,160.315 337.939,162.035 337.538,163.637L301.78,163.637ZM324.517,153.821C324.584,153.487 324.617,153.154 324.617,152.82L324.617,151.818C324.617,149.614 323.833,147.778 322.263,146.309C320.694,144.84 318.44,144.105 315.502,144.105C313.699,144.105 312.08,144.423 310.644,145.057C309.209,145.691 307.957,146.476 306.888,147.411C305.82,148.346 304.952,149.381 304.284,150.516C303.616,151.651 303.149,152.753 302.882,153.821L324.517,153.821Z" style="fill-rule:nonzero;"/>
            <path d="M344.55,184.271L357.872,108.547L374.198,108.547L360.776,184.271L344.55,184.271Z" style="fill-rule:nonzero;"/>
            <path d="M374.098,146.509L376.302,134.39L384.215,134.39L386.519,121.168L402.144,121.168L399.84,134.39L410.458,134.39L408.254,146.509L397.937,146.509L394.331,166.041C394.265,166.509 394.214,166.993 394.181,167.494C394.148,167.995 394.131,168.412 394.131,168.746C394.131,170.415 394.598,171.55 395.533,172.151C396.468,172.752 397.737,173.053 399.34,173.053C400.141,173.053 400.925,172.986 401.693,172.853C402.461,172.719 403.146,172.585 403.747,172.452L402.244,183.971C401.309,184.371 399.991,184.722 398.288,185.022C396.585,185.323 394.966,185.473 393.43,185.473C388.622,185.473 384.832,184.505 382.061,182.568C379.29,180.632 377.904,177.56 377.904,173.353C377.904,172.552 377.954,171.634 378.055,170.599C378.155,169.564 378.305,168.579 378.505,167.644L382.312,146.509L374.098,146.509Z" style="fill-rule:nonzero;"/>
            <path d="M433.495,141.702C435.098,139.164 437.018,137.094 439.255,135.491C441.492,133.889 444.18,133.087 447.318,133.087C447.919,133.087 448.537,133.121 449.171,133.188C449.805,133.254 450.323,133.355 450.724,133.488L448.119,147.711C447.385,147.511 446.684,147.377 446.016,147.311C445.348,147.244 444.714,147.211 444.113,147.211C441.776,147.211 439.806,147.611 438.203,148.413C436.601,149.214 435.282,150.199 434.247,151.367C433.212,152.536 432.444,153.788 431.943,155.124C431.442,156.459 431.092,157.628 430.891,158.629L426.384,184.271L410.358,184.271L417.469,144.706C417.736,143.438 418.02,141.802 418.321,139.798C418.621,137.795 418.838,135.992 418.972,134.39L434.197,134.39C434.197,134.723 434.163,135.208 434.096,135.842C434.03,136.476 433.946,137.144 433.846,137.845C433.746,138.546 433.362,141.234 433.295,141.702L433.495,141.702Z" style="fill-rule:nonzero;"/>
            <path d="M496.699,149.014C496.699,149.948 496.649,150.95 496.549,152.018C496.449,153.087 496.298,154.122 496.098,155.124L492.692,174.555C492.359,176.292 492.108,178.061 491.941,179.864C491.774,181.667 491.691,183.136 491.691,184.271L477.467,184.271C477.467,183.537 477.501,182.685 477.568,181.717C477.634,180.749 477.735,179.831 477.868,178.963L477.668,178.963C473.995,183.303 468.92,185.473 462.443,185.473C460.707,185.473 458.92,185.256 457.084,184.822C455.248,184.388 453.578,183.654 452.076,182.619C450.573,181.584 449.355,180.215 448.42,178.512C447.485,176.809 447.018,174.722 447.018,172.252C447.018,168.245 448.019,164.973 450.023,162.435C452.026,159.898 454.647,157.928 457.885,156.526C461.124,155.124 464.797,154.155 468.903,153.621C473.01,153.087 477.134,152.82 481.274,152.82C481.407,152.219 481.474,151.751 481.474,151.417L481.474,150.516C481.474,148.579 480.79,147.16 479.421,146.259C478.052,145.358 476.132,144.907 473.661,144.907C471.391,144.907 469.104,145.341 466.8,146.209C464.496,147.077 462.409,148.212 460.54,149.614L453.929,140.399C456.934,137.995 460.389,136.142 464.296,134.84C468.202,133.538 472.059,132.887 475.865,132.887C478.87,132.887 481.641,133.204 484.178,133.839C486.716,134.473 488.903,135.458 490.739,136.793C492.576,138.129 494.028,139.798 495.096,141.802C496.165,143.805 496.699,146.209 496.699,149.014ZM478.97,162.435C476.967,162.435 474.93,162.519 472.86,162.686C470.79,162.853 468.937,163.203 467.301,163.738C465.665,164.272 464.313,165.006 463.244,165.941C462.176,166.876 461.642,168.111 461.642,169.647C461.642,171.651 462.326,173.003 463.695,173.704C465.064,174.405 466.583,174.756 468.252,174.756C471.324,174.756 473.895,173.804 475.965,171.901C478.035,169.998 479.337,167.644 479.871,164.839L480.372,162.435L478.97,162.435Z" style="fill-rule:nonzero;"/>
        </g>
        <g transform="matrix(0.146578,0,0,0.11965,-37.1793,-6.70148)">
            <path d="M699.497,93.252C707.485,93.312 714.6,99.453 717.335,108.648C757.196,242.17 805.753,338.224 891.144,456.19C898.326,466.098 900.121,480.232 895.736,492.345C880.197,535.288 843.767,635.93 828.185,678.978C823.759,691.205 813.867,699.087 802.95,699.087C733.505,699.087 482.962,699.087 413.741,699.087C402.889,699.087 393.044,691.298 388.58,679.181C372.821,636.406 335.887,536.149 320.166,493.477C315.742,481.465 317.416,467.399 324.456,457.435C404.94,343.343 456.579,244.045 497.724,113.624C501.844,100.497 512.169,91.867 523.649,91.952C565.442,92.252 663.693,92.985 699.497,93.252ZM608.41,138.439C559.332,302.646 497.934,421.767 395.913,563.431L820.906,563.431C713.175,417.737 656.032,303.99 608.41,138.439Z"/>
        </g>
    </g>
</svg>
